<svg id="Layer_1" data-name="Layer 1" xmlns="http://www.w3.org/2000/svg" viewBox="0 0 48 48"><defs><style>.cls-1{fill:#083238;}</style></defs><path class="cls-1" d="M48,18.11A16,16,0,0,0,33.79,2.22l-1.6-.1H9L12.37,9.2A36.13,36.13,0,0,1,14.19,14a16,16,0,0,0,0,31.78l1.6.1H39l-3.32-7.09A33,33,0,0,1,33.81,34,16,16,0,0,0,48,18.11ZM32,26.37c-.7,0-5.36-1.1-7.4-1.59l.25,3.74a42.28,42.28,0,0,0,.79,4.81,39.37,39.37,0,0,0,1.12,4.08l.24.74-11.52,0a8.26,8.26,0,0,1,.5-16.5c.69,0,5.36,1.1,7.4,1.59l-.26-3.74a43.12,43.12,0,0,0-.7-4.45l-.08-.36a41.52,41.52,0,0,0-1.13-4.08L21,9.85l11.52,0A8.26,8.26,0,0,1,32,26.37Z"/></svg>