<svg id="Layer_1" data-name="Layer 1" xmlns="http://www.w3.org/2000/svg" viewBox="0 0 250 100"><defs><style>.cls-1{fill:#0b4650;opacity:0;}.cls-2{fill:#e6edef;}</style></defs><rect class="cls-1" x="73.89" y="8.89" width="13.89" height="68.33"/><rect class="cls-1" x="236.11" y="8.89" width="13.89" height="68.33"/><rect class="cls-1" x="118.06" y="-109.17" width="13.89" height="250" transform="translate(140.83 -109.17) rotate(90)"/><rect class="cls-1" x="118.06" y="-40.83" width="13.89" height="250" transform="translate(209.17 -40.83) rotate(90)"/><rect class="cls-1" y="8.89" width="13.89" height="68.33"/><path class="cls-2" d="M109.12,40.08a13.69,13.69,0,0,0-4.59-2.84,16.11,16.11,0,0,0-5.73-1h-11V63.71H98.88a15.8,15.8,0,0,0,5.69-1,13.89,13.89,0,0,0,4.57-2.84,12.73,12.73,0,0,0,3-4.36,14.83,14.83,0,0,0,0-11.06A12.94,12.94,0,0,0,109.12,40.08ZM106,54.45a6.81,6.81,0,0,1-2.87,2.9,9.19,9.19,0,0,1-4.36,1H93.9V41.58h4.82a9,9,0,0,1,4.34,1,7.11,7.11,0,0,1,2.87,2.88,9.06,9.06,0,0,1,1,4.47A9.41,9.41,0,0,1,106,54.45Z"/><path class="cls-2" d="M128.7,46.38a6.79,6.79,0,0,0-1.77-1.22,7.72,7.72,0,0,0-3.44-.74,8.62,8.62,0,0,0-4.65,1.28,9.14,9.14,0,0,0-3.22,3.5,11.33,11.33,0,0,0,0,10.11,9.07,9.07,0,0,0,3.22,3.5,8.54,8.54,0,0,0,4.65,1.29,8,8,0,0,0,3.46-.74,6.87,6.87,0,0,0,1.75-1.2v1.55h5.84V44.81H128.7Zm-4,12.35a4.23,4.23,0,0,1-2.18-.58,4.11,4.11,0,0,1-1.52-1.6,5.15,5.15,0,0,1,0-4.63,4.1,4.1,0,0,1,1.52-1.57,4.51,4.51,0,0,1,4.39,0,3.8,3.8,0,0,1,1.48,1.57,5,5,0,0,1,.53,2.34,4.57,4.57,0,0,1-1.17,3.21A4,4,0,0,1,124.7,58.73Z"/><path class="cls-2" d="M140.76,35.67a3.13,3.13,0,0,0-2.32.93,3.19,3.19,0,0,0-.91,2.33,3.23,3.23,0,0,0,.91,2.32,3.11,3.11,0,0,0,2.32,1,3,3,0,0,0,2.29-1,3.26,3.26,0,0,0,.9-2.32,3.22,3.22,0,0,0-.9-2.33A3,3,0,0,0,140.76,35.67Z"/><rect class="cls-2" x="137.76" y="44.81" width="5.95" height="18.9"/><rect class="cls-2" x="146.94" y="35.47" width="5.95" height="28.23"/><polygon class="cls-2" points="164.36 56.28 160.59 44.81 154.17 44.81 161.39 62.41 157.09 71.68 163.2 71.68 166.54 63.78 174.63 44.81 168.21 44.81 164.36 56.28"/><path class="cls-2" d="M191.47,37.94a9.23,9.23,0,0,0-4.32-1h-9.92V63.71h2.84V53h7.08a9.23,9.23,0,0,0,4.32-1,7.52,7.52,0,0,0,3-2.8,8.61,8.61,0,0,0,0-8.46A7.61,7.61,0,0,0,191.47,37.94Zm.48,10a5,5,0,0,1-2.06,1.88,6.26,6.26,0,0,1-2.93.67h-6.89v-11H187a6.27,6.27,0,0,1,2.93.68A5.13,5.13,0,0,1,192,42a5.39,5.39,0,0,1,.76,2.93A5.45,5.45,0,0,1,192,47.9Z"/><path class="cls-2" d="M212.58,48.5c-.06-.09-.11-.2-.17-.29a7,7,0,0,0-2.68-2.33A8.22,8.22,0,0,0,206,45a8.66,8.66,0,0,0-4.62,1.26,9.08,9.08,0,0,0-3.25,3.43,10,10,0,0,0-1.19,4.88,9.78,9.78,0,0,0,1.19,4.82,9,9,0,0,0,3.25,3.4A8.73,8.73,0,0,0,206,64.1a8.11,8.11,0,0,0,3.72-.84,7.07,7.07,0,0,0,2.68-2.35l.17-.3v3.1h2.73V45.43h-2.73ZM211,59.58a5.86,5.86,0,0,1-4.57,1.91A6.73,6.73,0,0,1,203,60.6a6.54,6.54,0,0,1-2.39-2.45,7.12,7.12,0,0,1-.88-3.58,7.22,7.22,0,0,1,.88-3.6A6.47,6.47,0,0,1,203,48.5a6.63,6.63,0,0,1,3.44-.89,6.26,6.26,0,0,1,3.33.87,6,6,0,0,1,2.21,2.45,8,8,0,0,1,.8,3.64A7.16,7.16,0,0,1,211,59.58Z"/><polygon class="cls-2" points="233.08 45.43 226.85 59.45 220.94 45.43 217.95 45.43 225.35 62.38 220.98 71.41 223.98 71.41 227.52 63.78 236.11 45.43 233.08 45.43"/><path class="cls-2" d="M74.06,42.61A20,20,0,0,0,56.25,22.69l-2-.12h-29l4.18,8.88a43.21,43.21,0,0,1,2.29,6,20.05,20.05,0,0,0,0,39.85l2,.12h29l-4.16-8.89a43.09,43.09,0,0,1-2.29-6A20.08,20.08,0,0,0,74.06,42.61ZM54,53c-.88,0-6.73-1.38-9.28-2l.31,4.68a55.06,55.06,0,0,0,1,6,50.16,50.16,0,0,0,1.41,5.12l.3.92-14.44,0A10.35,10.35,0,0,1,33.94,47c.86,0,6.71,1.38,9.27,2l-.32-4.68A51,51,0,0,0,42,38.75l-.1-.45c-.38-1.74-.86-3.46-1.4-5.12l-.31-.92,14.45,0A10.35,10.35,0,0,1,54,53Z"/><path class="cls-2" d="M89.88,76.25a1.27,1.27,0,0,1-.62-.13,1.38,1.38,0,0,1-.4-.29c-.09-.12-.17-.22-.23-.32h-.06v.65h-.66v-5.7h.68V72.6h0a3.46,3.46,0,0,1,.23-.31,1.32,1.32,0,0,1,.39-.29,1.4,1.4,0,0,1,.62-.12,1.72,1.72,0,0,1,.94.26,1.82,1.82,0,0,1,.63.76,2.61,2.61,0,0,1,.23,1.16,2.79,2.79,0,0,1-.22,1.16,1.9,1.9,0,0,1-.63.76A1.67,1.67,0,0,1,89.88,76.25Zm-.11-.61a1,1,0,0,0,.66-.21,1.24,1.24,0,0,0,.41-.56,2.44,2.44,0,0,0,0-1.63,1.2,1.2,0,0,0-.4-.55,1,1,0,0,0-.67-.2,1.06,1.06,0,0,0-.65.19,1.21,1.21,0,0,0-.41.55,2.27,2.27,0,0,0-.14.82,2.33,2.33,0,0,0,.14.83,1.24,1.24,0,0,0,.41.56A1.09,1.09,0,0,0,89.77,75.64Z"/><path class="cls-2" d="M92.42,77.72l.14-.6.14,0a.84.84,0,0,0,.35,0,.47.47,0,0,0,.28-.17,1.2,1.2,0,0,0,.22-.41l.15-.4-1.62-4.23h.74l.9,2.49c.09.24.17.49.24.74l.21.71h-.24l.21-.71c.07-.25.15-.5.24-.74l.9-2.49H96l-1.88,4.88a1.73,1.73,0,0,1-.3.54,1.07,1.07,0,0,1-.41.32,1.47,1.47,0,0,1-.53.1l-.29,0Z"/><path class="cls-2" d="M98.52,76.16l2.08-5.7h.83l2.09,5.7h-.76l-1.2-3.39q-.12-.33-.27-.78l-.35-1.19h.14q-.21.74-.36,1.2c-.1.31-.18.57-.25.77l-1.19,3.39Zm1.06-1.59v-.63h2.89v.63Z"/><path class="cls-2" d="M105,70.46v5.7h-.68v-5.7Z"/><path class="cls-2" d="M107.87,76.25a1.93,1.93,0,0,1-1.06-.28,1.8,1.8,0,0,1-.68-.76,2.54,2.54,0,0,1-.24-1.13,2.6,2.6,0,0,1,.24-1.15,1.85,1.85,0,0,1,.66-.77,1.77,1.77,0,0,1,1-.28,2.1,2.1,0,0,1,.7.12,1.5,1.5,0,0,1,.59.38,1.7,1.7,0,0,1,.42.66,2.78,2.78,0,0,1,.15,1v.26h-3.32V73.7h3l-.31.2a1.67,1.67,0,0,0-.14-.73,1,1,0,0,0-1-.69,1.15,1.15,0,0,0-.65.18,1.33,1.33,0,0,0-.42.49,1.64,1.64,0,0,0-.14.67v.36a1.74,1.74,0,0,0,.16.79,1,1,0,0,0,.45.5,1.34,1.34,0,0,0,.68.17,1.41,1.41,0,0,0,.47-.07,1.11,1.11,0,0,0,.36-.23,1,1,0,0,0,.22-.37l.66.15a1.38,1.38,0,0,1-.33.59,1.67,1.67,0,0,1-.59.4A2.22,2.22,0,0,1,107.87,76.25Z"/><path class="cls-2" d="M110.58,76.16V71.94h.66v.65h0a1,1,0,0,1,.4-.52,1.19,1.19,0,0,1,.67-.19h.34v.68l-.16,0-.25,0a1.11,1.11,0,0,0-.52.13.79.79,0,0,0-.36.34,1,1,0,0,0-.14.52v2.64Z"/><path class="cls-2" d="M115.26,71.94v.58h-2.21v-.58Zm-1.55-1h.68v4.18a.64.64,0,0,0,.11.4.52.52,0,0,0,.38.12h.17l.19,0,.11.57-.24,0a1.14,1.14,0,0,1-.26,0,1.17,1.17,0,0,1-.84-.28,1,1,0,0,1-.3-.79Z"/><path class="cls-2" d="M117.46,76.25a2.13,2.13,0,0,1-.78-.13,1.45,1.45,0,0,1-.57-.39,1.38,1.38,0,0,1-.29-.65l.65-.12a.9.9,0,0,0,.33.53,1.18,1.18,0,0,0,.65.17,1.21,1.21,0,0,0,.7-.19.57.57,0,0,0,.26-.45.47.47,0,0,0-.16-.37,1,1,0,0,0-.46-.22l-.7-.16a1.66,1.66,0,0,1-.86-.43,1,1,0,0,1-.28-.73,1,1,0,0,1,.2-.64,1.28,1.28,0,0,1,.55-.44,2,2,0,0,1,.8-.15,1.9,1.9,0,0,1,.75.13,1.34,1.34,0,0,1,.51.39A1.39,1.39,0,0,1,119,73l-.63.13a.88.88,0,0,0-.28-.44.86.86,0,0,0-.61-.2,1,1,0,0,0-.63.18.53.53,0,0,0-.25.44.47.47,0,0,0,.17.38,1.31,1.31,0,0,0,.53.23l.65.15a1.7,1.7,0,0,1,.85.42,1,1,0,0,1,.28.73,1.08,1.08,0,0,1-.21.66,1.4,1.4,0,0,1-.58.45A2.13,2.13,0,0,1,117.46,76.25Z"/></svg>