
<svg width="991" height="156" viewBox="0 0 991 156" fill="none" xmlns="http://www.w3.org/2000/svg">
<mask id="mask0_3_467" style="mask-type:luminance" maskUnits="userSpaceOnUse" x="0" y="6" width="176" height="145">
<path d="M0 6H176V150.619H0V6Z" fill="white"/>
</mask>
<g mask="url(#mask0_3_467)">
<mask id="mask1_3_467" style="mask-type:luminance" maskUnits="userSpaceOnUse" x="-10" y="-27" width="196" height="204">
<path d="M31.3816 -26.8669L185.017 16.0458L143.765 176.8L-9.87244 133.888L31.3816 -26.8669Z" fill="white"/>
</mask>
<g mask="url(#mask1_3_467)">
<mask id="mask2_3_467" style="mask-type:luminance" maskUnits="userSpaceOnUse" x="-10" y="-27" width="196" height="204">
<path d="M31.3816 -26.8669L185.017 16.0458L143.765 176.8L-9.87244 133.888L31.3816 -26.8669Z" fill="white"/>
</mask>
<g mask="url(#mask2_3_467)">
<path d="M165.168 73.7861C155.88 86.373 149.763 94.6903 153.298 115.116C154.132 119.841 153.325 126.872 149.652 131.918C147.062 135.47 143.41 137.573 139.078 138.003L138.711 138.041L138.333 138.009C137.906 137.98 127.834 137.163 122.363 127.583C116.936 118.011 118.341 103.742 126.563 85.1395C138.838 57.4013 131.359 45.8364 127.567 42.1506C122.912 37.6355 116.699 37.4303 112.963 39.5736C110.773 40.8452 107.99 39.9989 106.779 37.7032C105.559 35.4181 106.354 32.5153 108.57 31.2542C116.386 26.7645 126.751 28.3937 133.758 35.2044C139.001 40.2887 149.617 55.7489 134.841 89.1278C126.283 108.426 127.561 118 130.138 122.638C132.783 127.363 137.236 128.258 138.433 128.427C140.11 128.194 141.406 127.536 142.398 126.182C143.164 125.145 143.659 123.882 143.99 122.589C144.541 120.44 144.586 118.21 144.345 116.809C142.594 106.71 142.965 98.8626 144.651 92.2127C147.09 82.7064 152.307 75.6544 157.959 67.9888L162.181 62.1831C163.678 60.0376 164.805 57.4204 165.531 54.5365C168.298 43.8115 165.831 29.3394 159.036 21.8474C150.972 12.9758 141.004 16.1093 132.854 21.365C132.105 19.6342 131.108 17.9839 129.741 16.5473C128.82 15.6015 127.816 14.7806 126.755 14.1014C148.897 -0.944076 160.972 10.1893 165.631 15.3032C177.259 28.108 179.188 54.1134 169.506 67.8111L165.168 73.7861ZM54.7992 85.4125C50.2199 84.1261 45.4966 86.9718 44.2717 91.7408C43.0427 96.531 45.7704 101.465 50.3517 102.743C54.9371 104.025 59.6624 101.173 60.8934 96.3829C62.1163 91.6139 59.3845 86.6925 54.7992 85.4125ZM120.98 78.4599C120.98 78.4599 118.958 84.1261 118.759 84.7037C118.552 85.0253 115.05 90.6047 115.05 90.6047L62.9376 144.972C59.7516 148.307 55.5232 150.135 51.021 150.143C46.539 150.143 42.3086 148.322 39.1327 145.006L5.06798 109.497C-1.46226 102.665 -1.47037 91.5018 5.09637 84.6487L57.2024 30.2535C57.2024 30.2535 62.9397 26.3688 62.5523 26.5402L69.0724 24.1811L113.377 13.583C118.08 12.3707 123.162 13.9956 126.94 17.9183C130.027 21.1386 131.529 25.3808 131.361 29.4727C124.21 25.019 115.433 24.3567 108.195 27.9705C104.277 27.029 100.008 28.0149 96.9719 31.214C92.2203 36.1629 92.2263 44.1903 96.9618 49.1243C101.707 54.0753 109.414 54.0732 114.157 49.1222C116.183 47.0022 117.274 44.313 117.55 41.5349C122.894 40.1343 127.926 46.1431 127.735 47.7956C127.504 49.8183 120.98 78.4599 120.98 78.4599ZM78.6183 96.1629C79.3829 93.1817 78.7157 89.8197 76.645 87.3569C75.8764 86.4429 73.6943 84.7143 70.2689 84.2192C70.5103 83.6542 71.0112 83.0491 71.1491 82.5138C71.7818 80.0468 71.4006 78.0537 71.143 77.1037C69.8958 72.8065 65.931 69.9481 61.6945 70.2845C60.5831 70.3987 58.0927 71.1266 55.7848 73.5132C54.0813 70.2443 51.6679 68.7124 50.5424 68.2723C46.5654 66.7363 42.0429 68.2448 39.7857 71.8459C39.4896 72.3516 39.0374 73.2233 38.7291 74.4188C38.4411 75.5465 38.4087 77.0572 38.6176 78.6948C34.9996 78.0262 32.2658 79.0799 31.2214 79.7506C29.1447 81.0624 27.7291 83.0809 27.145 85.3554C26.7232 87.0014 26.7476 88.7893 27.2748 90.4862C27.6196 91.6181 28.6985 94.1254 31.629 95.9725C29.3779 97.9444 28.4633 100.124 28.0881 101.584C27.9968 101.945 27.94 102.25 27.8974 102.506C27.285 106.725 29.4773 110.8 33.2555 112.414C34.3628 112.873 37.054 113.654 40.4894 112.423C40.4874 116.075 41.9638 118.379 42.7122 119.289C45.381 122.53 49.8305 123.37 53.5114 121.364C54.5984 120.768 56.8475 118.825 58.19 115.245C60.7839 117.518 63.3696 117.913 64.4769 117.888C68.4011 117.776 71.8346 114.86 72.8628 110.857C72.9155 110.648 72.95 110.464 72.9865 110.273C73.2359 109.025 73.2501 106.039 71.4452 102.758C74.6292 102 76.5234 100.183 77.1845 99.2562C77.8598 98.3125 78.3384 97.2546 78.6183 96.1629Z" fill="black"/>
</g>
</g>
</g>
<mask id="mask3_3_467" style="mask-type:luminance" maskUnits="userSpaceOnUse" x="0" y="6" width="176" height="145">
<path d="M0 6H176V150.619H0V6Z" fill="white"/>
</mask>
<g mask="url(#mask3_3_467)">
<mask id="mask4_3_467" style="mask-type:luminance" maskUnits="userSpaceOnUse" x="-10" y="-27" width="196" height="204">
<path d="M31.3816 -26.8669L185.017 16.0458L143.765 176.8L-9.87244 133.888L31.3816 -26.8669Z" fill="white"/>
</mask>
<g mask="url(#mask4_3_467)">
<mask id="mask5_3_467" style="mask-type:luminance" maskUnits="userSpaceOnUse" x="-10" y="-27" width="196" height="204">
<path d="M31.3816 -26.8669L185.017 16.0458L143.765 176.8L-9.87244 133.888L31.3816 -26.8669Z" fill="white"/>
</mask>
<g mask="url(#mask5_3_467)">
<path d="M165.168 73.7861C155.88 86.373 149.763 94.6903 153.298 115.116C154.132 119.841 153.325 126.872 149.652 131.918C147.062 135.47 143.41 137.573 139.078 138.003L138.711 138.041L138.333 138.009C137.906 137.98 127.834 137.163 122.363 127.583C116.936 118.011 118.341 103.742 126.563 85.1395C138.838 57.4013 131.359 45.8364 127.567 42.1506C122.912 37.6355 116.699 37.4303 112.963 39.5736C110.773 40.8452 107.99 39.9989 106.779 37.7032C105.559 35.4181 106.354 32.5153 108.57 31.2542C116.386 26.7645 126.751 28.3937 133.758 35.2044C139.001 40.2887 149.617 55.7489 134.841 89.1278C126.283 108.426 127.561 118 130.138 122.638C132.783 127.363 137.236 128.258 138.433 128.427C140.11 128.194 141.406 127.536 142.398 126.182C143.164 125.145 143.659 123.882 143.99 122.589C144.541 120.44 144.586 118.21 144.345 116.809C142.594 106.71 142.965 98.8626 144.651 92.2127C147.09 82.7064 152.307 75.6544 157.959 67.9888L162.181 62.1831C163.678 60.0376 164.805 57.4204 165.531 54.5365C168.298 43.8115 165.831 29.3394 159.036 21.8474C150.972 12.9758 141.004 16.1093 132.854 21.365C132.105 19.6342 131.108 17.9839 129.741 16.5473C128.82 15.6015 127.816 14.7806 126.755 14.1014C148.897 -0.944076 160.972 10.1893 165.631 15.3032C177.259 28.108 179.188 54.1134 169.506 67.8111L165.168 73.7861ZM54.7992 85.4125C50.2199 84.1261 45.4966 86.9718 44.2717 91.7408C43.0427 96.531 45.7704 101.465 50.3517 102.743C54.9371 104.025 59.6624 101.173 60.8934 96.3829C62.1163 91.6139 59.3845 86.6925 54.7992 85.4125ZM120.98 78.4599C120.98 78.4599 118.958 84.1261 118.759 84.7037C118.552 85.0253 115.05 90.6047 115.05 90.6047L62.9376 144.972C59.7516 148.307 55.5232 150.135 51.021 150.143C46.539 150.143 42.3086 148.322 39.1327 145.006L5.06798 109.497C-1.46226 102.665 -1.47037 91.5018 5.09637 84.6487L57.2024 30.2535C57.2024 30.2535 62.9397 26.3688 62.5523 26.5402L69.0724 24.1811L113.377 13.583C118.08 12.3707 123.162 13.9956 126.94 17.9183C130.027 21.1386 131.529 25.3808 131.361 29.4727C124.21 25.019 115.433 24.3567 108.195 27.9705C104.277 27.029 100.008 28.0149 96.9719 31.214C92.2203 36.1629 92.2263 44.1903 96.9618 49.1243C101.707 54.0753 109.414 54.0732 114.157 49.1222C116.183 47.0022 117.274 44.313 117.55 41.5349C122.894 40.1343 127.926 46.1431 127.735 47.7956C127.504 49.8183 120.98 78.4599 120.98 78.4599ZM78.6183 96.1629C79.3829 93.1817 78.7157 89.8197 76.645 87.3569C75.8764 86.4429 73.6943 84.7143 70.2689 84.2192C70.5103 83.6542 71.0112 83.0491 71.1491 82.5138C71.7818 80.0468 71.4006 78.0537 71.143 77.1037C69.8958 72.8065 65.931 69.9481 61.6945 70.2845C60.5831 70.3987 58.0927 71.1266 55.7848 73.5132C54.0813 70.2443 51.6679 68.7124 50.5424 68.2723C46.5654 66.7363 42.0429 68.2448 39.7857 71.8459C39.4896 72.3516 39.0374 73.2233 38.7291 74.4188C38.4411 75.5465 38.4087 77.0572 38.6176 78.6948C34.9996 78.0262 32.2658 79.0799 31.2214 79.7506C29.1447 81.0624 27.7291 83.0809 27.145 85.3554C26.7232 87.0014 26.7476 88.7893 27.2748 90.4862C27.6196 91.6181 28.6985 94.1254 31.629 95.9725C29.3779 97.9444 28.4633 100.124 28.0881 101.584C27.9968 101.945 27.94 102.25 27.8974 102.506C27.285 106.725 29.4773 110.8 33.2555 112.414C34.3628 112.873 37.054 113.654 40.4894 112.423C40.4874 116.075 41.9638 118.379 42.7122 119.289C45.381 122.53 49.8305 123.37 53.5114 121.364C54.5984 120.768 56.8475 118.825 58.19 115.245C60.7839 117.518 63.3696 117.913 64.4769 117.888C68.4011 117.776 71.8346 114.86 72.8628 110.857C72.9155 110.648 72.95 110.464 72.9865 110.273C73.2359 109.025 73.2501 106.039 71.4452 102.758C74.6292 102 76.5234 100.183 77.1845 99.2562C77.8598 98.3125 78.3384 97.2546 78.6183 96.1629Z" fill="#007AFF"/>
</g>
</g>
</g>
<mask id="mask6_3_467" style="mask-type:luminance" maskUnits="userSpaceOnUse" x="25" y="62" width="63" height="66">
<path d="M25.259 62.1048H87.4808V127.018H25.259V62.1048Z" fill="white"/>
</mask>
<g mask="url(#mask6_3_467)">
<mask id="mask7_3_467" style="mask-type:luminance" maskUnits="userSpaceOnUse" x="25" y="62" width="63" height="66">
<path d="M56.3709 62.1048C39.1875 62.1048 25.259 76.6361 25.259 94.5612C25.259 112.486 39.1875 127.018 56.3709 127.018C73.5524 127.018 87.4808 112.486 87.4808 94.5612C87.4808 76.6361 73.5524 62.1048 56.3709 62.1048Z" fill="white"/>
</mask>
<g mask="url(#mask7_3_467)">
<path d="M25.259 62.1048H87.4808V127.018H25.259V62.1048Z" fill="black"/>
</g>
</g>
<mask id="mask8_3_467" style="mask-type:luminance" maskUnits="userSpaceOnUse" x="25" y="62" width="63" height="66">
<path d="M25.259 62.1048H87.4808V127.018H25.259V62.1048Z" fill="white"/>
</mask>
<g mask="url(#mask8_3_467)">
<mask id="mask9_3_467" style="mask-type:luminance" maskUnits="userSpaceOnUse" x="25" y="62" width="63" height="66">
<path d="M56.3709 62.1048C39.1875 62.1048 25.259 76.6361 25.259 94.5612C25.259 112.486 39.1875 127.018 56.3709 127.018C73.5524 127.018 87.4808 112.486 87.4808 94.5612C87.4808 76.6361 73.5524 62.1048 56.3709 62.1048Z" fill="white"/>
</mask>
<g mask="url(#mask9_3_467)">
<path d="M25.259 62.1048H87.4808V127.018H25.259V62.1048Z" fill="#007AFF"/>
</g>
</g>
<path d="M65.1363 112.731C62.5052 115.36 59.5824 117.009 56.3696 117.676C53.1551 118.341 49.8056 117.982 46.3193 116.596C42.8331 115.211 39.3505 112.778 35.8752 109.303C34.3382 107.766 32.9378 106.163 31.6742 104.497C30.4143 102.834 29.3075 101.131 28.3558 99.3914C27.4076 97.6556 26.6218 95.8869 26 94.0891L34.7302 85.3589C35.8971 88.393 37.2391 91.4161 38.7561 94.4246C40.2731 97.4331 42.1421 100.05 44.3647 102.272C45.9 103.808 47.3404 104.843 48.6824 105.379C50.028 105.919 51.2679 106.047 52.402 105.766C53.5343 105.483 54.5554 104.887 55.4652 103.979C56.5775 102.865 57.1537 101.539 57.1938 100.004C57.2321 98.467 56.9422 96.702 56.3259 94.709C55.7077 92.7161 54.9766 90.5081 54.1306 88.0867C53.5799 86.5751 53.0475 84.863 52.5333 82.9521C52.0173 81.0412 51.7183 79.0356 51.6362 76.9351C51.5578 74.8309 51.8933 72.7086 52.6427 70.568C53.3903 68.4292 54.776 66.3487 56.7999 64.3248C59.4438 61.681 62.3137 60.0217 65.4061 59.3507C68.4985 58.6798 71.6711 58.9715 74.924 60.226C78.1768 61.4804 81.3385 63.6447 84.4127 66.7171C86.7119 69.0181 88.6392 71.4833 90.1963 74.1125C91.7571 76.7382 93.1738 79.6993 94.4483 82.9959L84.1136 87.2625C82.8975 84.3944 81.7086 81.9237 80.5472 79.8524C79.3839 77.7811 77.9671 75.9104 76.2951 74.2365C75.1227 73.0659 73.9339 72.2527 72.7287 71.8005C71.5271 71.3447 70.3747 71.2426 69.2716 71.4942C68.1721 71.7422 67.1784 72.3111 66.2886 73.2009C65.2329 74.2566 64.6549 75.4509 64.5528 76.7819C64.4507 78.1148 64.6859 79.7357 65.2602 81.6466C65.8382 83.5538 66.6132 85.8822 67.5868 88.6337C68.7775 91.9649 69.5943 95.0117 70.0374 97.7796C70.4841 100.551 70.3601 103.155 69.6654 105.591C68.9689 108.027 67.4592 110.406 65.1363 112.731Z" fill="white"/>
<path d="M226.56 125.28C221.867 125.28 217.301 124.811 212.864 123.872C208.512 122.933 204.501 121.696 200.832 120.16C197.248 118.539 194.261 116.747 191.872 114.784L198.912 101.728C201.387 103.776 204.203 105.525 207.36 106.976C210.517 108.427 213.845 109.536 217.344 110.304C220.928 111.072 224.512 111.456 228.096 111.456C232.448 111.456 236.245 110.944 239.488 109.92C242.731 108.896 245.205 107.445 246.912 105.568C248.704 103.691 249.6 101.429 249.6 98.784C249.6 96.3947 248.789 94.4747 247.168 93.024C245.547 91.488 243.371 90.2507 240.64 89.312C237.995 88.288 235.051 87.3493 231.808 86.496C228.651 85.5573 225.451 84.5333 222.208 83.424C218.965 82.2293 216.021 80.7787 213.376 79.072C210.731 77.28 208.555 75.0187 206.848 72.288C205.227 69.5573 204.416 66.144 204.416 62.048C204.416 56.16 206.037 51.0827 209.28 46.816C212.608 42.464 217.173 39.0933 222.976 36.704C228.864 34.3147 235.691 33.12 243.456 33.12C249.259 33.12 254.763 33.76 259.968 35.04C265.173 36.32 269.653 38.1973 273.408 40.672L266.88 53.856C263.552 51.6373 259.797 49.9307 255.616 48.736C251.435 47.5413 247.083 46.944 242.56 46.944C238.123 46.944 234.283 47.4987 231.04 48.608C227.797 49.7173 225.323 51.2533 223.616 53.216C221.909 55.1787 221.013 57.4827 220.928 60.128C220.928 62.6027 221.739 64.608 223.36 66.144C224.981 67.5947 227.115 68.832 229.76 69.856C232.405 70.88 235.349 71.8613 238.592 72.8C241.835 73.6533 245.035 74.6347 248.192 75.744C251.435 76.8533 254.421 78.2613 257.152 79.968C259.883 81.6747 262.059 83.8507 263.68 86.496C265.301 89.056 266.112 92.2987 266.112 96.224C266.112 102.112 264.448 107.232 261.12 111.584C257.877 115.936 253.269 119.307 247.296 121.696C241.408 124.085 234.496 125.28 226.56 125.28ZM327.028 54.88C332.916 54.88 337.865 56.0747 341.876 58.464C345.972 60.8533 348.873 64.3947 350.58 69.088C352.287 73.696 352.457 79.3707 351.092 86.112L343.54 124H327.54L334.964 86.496C336.073 80.9493 335.561 76.64 333.428 73.568C331.295 70.4107 327.412 68.832 321.78 68.832C315.892 68.832 311.028 70.4533 307.188 73.696C303.348 76.9387 300.745 81.888 299.38 88.544L292.212 124H276.212L295.156 29.024H311.156L301.94 75.104L298.612 68.96C301.855 64.096 305.908 60.5547 310.772 58.336C315.721 56.032 321.14 54.88 327.028 54.88ZM397.754 124.896C391.098 124.896 385.253 123.659 380.218 121.184C375.269 118.624 371.429 115.125 368.698 110.688C365.967 106.165 364.602 100.875 364.602 94.816C364.602 87.136 366.351 80.3093 369.85 74.336C373.349 68.2773 378.127 63.5413 384.186 60.128C390.33 56.6293 397.327 54.88 405.178 54.88C411.919 54.88 417.765 56.1173 422.714 58.592C427.749 60.9813 431.631 64.4373 434.362 68.96C437.093 73.3973 438.458 78.688 438.458 84.832C438.458 92.4267 436.709 99.2533 433.21 105.312C429.711 111.371 424.89 116.149 418.746 119.648C412.687 123.147 405.69 124.896 397.754 124.896ZM398.778 111.2C403.386 111.2 407.439 110.133 410.938 108C414.437 105.781 417.21 102.752 419.258 98.912C421.306 95.072 422.33 90.6347 422.33 85.6C422.33 80.3093 420.751 76.128 417.594 73.056C414.437 69.984 409.999 68.448 404.282 68.448C399.759 68.448 395.706 69.5573 392.122 71.776C388.623 73.9093 385.85 76.896 383.802 80.736C381.754 84.576 380.73 89.0133 380.73 94.048C380.73 99.424 382.309 103.648 385.466 106.72C388.623 109.707 393.061 111.2 398.778 111.2ZM487.806 124.896C482.089 124.896 477.139 123.872 472.958 121.824C468.777 119.691 465.619 116.576 463.486 112.48C461.353 108.299 460.371 103.136 460.542 96.992C460.713 88.4587 462.249 81.0347 465.15 74.72C468.051 68.4053 472.105 63.5413 477.31 60.128C482.601 56.6293 488.873 54.88 496.126 54.88C501.758 54.88 506.835 56.0747 511.358 58.464C515.881 60.768 519.465 64.1813 522.11 68.704C524.841 73.1413 526.206 78.5173 526.206 84.832C526.206 90.6347 525.225 95.968 523.262 100.832C521.385 105.696 518.697 109.92 515.198 113.504C511.699 117.088 507.603 119.904 502.91 121.952C498.302 123.915 493.267 124.896 487.806 124.896ZM441.47 148.832L460.03 55.648H475.262L472.19 71.264L467.966 89.44L465.662 107.744L457.47 148.832H441.47ZM486.526 111.2C491.134 111.2 495.187 110.133 498.686 108C502.185 105.781 504.958 102.752 507.006 98.912C509.054 95.072 510.078 90.6347 510.078 85.6C510.078 80.3093 508.499 76.128 505.342 73.056C502.185 69.984 497.747 68.448 492.03 68.448C487.507 68.448 483.454 69.5573 479.87 71.776C476.371 73.9093 473.598 76.896 471.55 80.736C469.502 84.576 468.478 89.0133 468.478 94.048C468.478 99.3387 470.057 103.52 473.214 106.592C476.371 109.664 480.809 111.2 486.526 111.2ZM550.852 108.256L554.308 88.544L595.396 55.648H617.156L578.756 86.624L570.18 92.896L550.852 108.256ZM534.212 124L553.156 29.024H569.156L550.212 124H534.212ZM586.436 124L567.364 93.152L578.372 80.864L604.996 124H586.436ZM645.766 124.896C638.939 124.896 633.009 123.659 627.974 121.184C622.939 118.624 619.014 115.125 616.198 110.688C613.467 106.165 612.102 100.875 612.102 94.816C612.102 87.0507 613.809 80.1813 617.222 74.208C620.635 68.2347 625.286 63.5413 631.174 60.128C637.147 56.6293 643.931 54.88 651.526 54.88C657.926 54.88 663.473 56.0747 668.166 58.464C672.859 60.8533 676.486 64.3093 679.046 68.832C681.691 73.2693 683.014 78.6027 683.014 84.832C683.014 86.4533 682.929 88.1173 682.758 89.824C682.587 91.5307 682.331 93.1093 681.99 94.56H624.006L625.798 83.936H674.438L667.91 87.52C668.593 83.168 668.294 79.5413 667.014 76.64C665.734 73.7387 663.686 71.52 660.87 69.984C658.054 68.448 654.683 67.68 650.758 67.68C646.065 67.68 641.969 68.7893 638.47 71.008C635.057 73.1413 632.411 76.2133 630.534 80.224C628.657 84.1493 627.718 88.7573 627.718 94.048C627.718 99.5947 629.297 103.861 632.454 106.848C635.697 109.835 640.689 111.328 647.43 111.328C651.27 111.328 654.939 110.731 658.438 109.536C661.937 108.256 664.838 106.507 667.142 104.288L673.798 115.424C670.214 118.581 665.947 120.971 660.998 122.592C656.134 124.128 651.057 124.896 645.766 124.896ZM725.016 124.896C718.189 124.896 712.259 123.659 707.224 121.184C702.189 118.624 698.264 115.125 695.448 110.688C692.717 106.165 691.352 100.875 691.352 94.816C691.352 87.0507 693.059 80.1813 696.472 74.208C699.885 68.2347 704.536 63.5413 710.424 60.128C716.397 56.6293 723.181 54.88 730.776 54.88C737.176 54.88 742.723 56.0747 747.416 58.464C752.109 60.8533 755.736 64.3093 758.296 68.832C760.941 73.2693 762.264 78.6027 762.264 84.832C762.264 86.4533 762.179 88.1173 762.008 89.824C761.837 91.5307 761.581 93.1093 761.24 94.56H703.256L705.048 83.936H753.688L747.16 87.52C747.843 83.168 747.544 79.5413 746.264 76.64C744.984 73.7387 742.936 71.52 740.12 69.984C737.304 68.448 733.933 67.68 730.008 67.68C725.315 67.68 721.219 68.7893 717.72 71.008C714.307 73.1413 711.661 76.2133 709.784 80.224C707.907 84.1493 706.968 88.7573 706.968 94.048C706.968 99.5947 708.547 103.861 711.704 106.848C714.947 109.835 719.939 111.328 726.68 111.328C730.52 111.328 734.189 110.731 737.688 109.536C741.187 108.256 744.088 106.507 746.392 104.288L753.048 115.424C749.464 118.581 745.197 120.971 740.248 122.592C735.384 124.128 730.307 124.896 725.016 124.896ZM811.306 124.896C805.589 124.896 800.639 123.872 796.458 121.824C792.277 119.691 789.119 116.576 786.986 112.48C784.853 108.299 783.871 103.136 784.042 96.992C784.213 88.4587 785.749 81.0347 788.65 74.72C791.551 68.4053 795.605 63.5413 800.81 60.128C806.101 56.6293 812.373 54.88 819.626 54.88C825.258 54.88 830.335 56.0747 834.858 58.464C839.381 60.768 842.965 64.1813 845.61 68.704C848.341 73.1413 849.706 78.5173 849.706 84.832C849.706 90.6347 848.725 95.968 846.762 100.832C844.885 105.696 842.197 109.92 838.698 113.504C835.199 117.088 831.103 119.904 826.41 121.952C821.802 123.915 816.767 124.896 811.306 124.896ZM764.97 148.832L783.53 55.648H798.762L795.69 71.264L791.466 89.44L789.162 107.744L780.97 148.832H764.97ZM810.026 111.2C814.634 111.2 818.687 110.133 822.186 108C825.685 105.781 828.458 102.752 830.506 98.912C832.554 95.072 833.578 90.6347 833.578 85.6C833.578 80.3093 831.999 76.128 828.842 73.056C825.685 69.984 821.247 68.448 815.53 68.448C811.007 68.448 806.954 69.5573 803.37 71.776C799.871 73.9093 797.098 76.896 795.05 80.736C793.002 84.576 791.978 89.0133 791.978 94.048C791.978 99.3387 793.557 103.52 796.714 106.592C799.871 109.664 804.309 111.2 810.026 111.2ZM892.016 124.896C885.189 124.896 879.259 123.659 874.224 121.184C869.189 118.624 865.264 115.125 862.448 110.688C859.717 106.165 858.352 100.875 858.352 94.816C858.352 87.0507 860.059 80.1813 863.472 74.208C866.885 68.2347 871.536 63.5413 877.424 60.128C883.397 56.6293 890.181 54.88 897.776 54.88C904.176 54.88 909.723 56.0747 914.416 58.464C919.109 60.8533 922.736 64.3093 925.296 68.832C927.941 73.2693 929.264 78.6027 929.264 84.832C929.264 86.4533 929.179 88.1173 929.008 89.824C928.837 91.5307 928.581 93.1093 928.24 94.56H870.256L872.048 83.936H920.688L914.16 87.52C914.843 83.168 914.544 79.5413 913.264 76.64C911.984 73.7387 909.936 71.52 907.12 69.984C904.304 68.448 900.933 67.68 897.008 67.68C892.315 67.68 888.219 68.7893 884.72 71.008C881.307 73.1413 878.661 76.2133 876.784 80.224C874.907 84.1493 873.968 88.7573 873.968 94.048C873.968 99.5947 875.547 103.861 878.704 106.848C881.947 109.835 886.939 111.328 893.68 111.328C897.52 111.328 901.189 110.731 904.688 109.536C908.187 108.256 911.088 106.507 913.392 104.288L920.048 115.424C916.464 118.581 912.197 120.971 907.248 122.592C902.384 124.128 897.307 124.896 892.016 124.896ZM936.962 124L950.53 55.648H965.762L961.922 75.104L960.514 69.472C963.671 63.9253 967.682 60.128 972.546 58.08C977.41 55.9467 983.341 54.88 990.338 54.88L987.394 70.112C986.711 69.9413 986.071 69.856 985.474 69.856C984.877 69.7707 984.194 69.728 983.426 69.728C977.197 69.728 972.034 71.392 967.938 74.72C963.842 77.9627 961.111 83.168 959.746 90.336L952.962 124H936.962Z" fill="black"/>
</svg>
